<?xml version="1.0" encoding="UTF-8" standalone="no"?>
<!-- Created with Inkscape (http://www.inkscape.org/) -->

<svg
   xmlns:dc="http://purl.org/dc/elements/1.1/"
   xmlns:cc="http://creativecommons.org/ns#"
   xmlns:rdf="http://www.w3.org/1999/02/22-rdf-syntax-ns#"
   xmlns:svg="http://www.w3.org/2000/svg"
   xmlns="http://www.w3.org/2000/svg"
   xmlns:sodipodi="http://sodipodi.sourceforge.net/DTD/sodipodi-0.dtd"
   xmlns:inkscape="http://www.inkscape.org/namespaces/inkscape"
   width="241.39433mm"
   height="143.99107mm"
   viewBox="0 0 241.39433 143.99107"
   version="1.1"
   id="svg8"
   inkscape:version="0.92.4 (f8dce91, 2019-08-02)"
   sodipodi:docname="Helicopter Woman.svg">
  <defs
     id="defs2" />
  <sodipodi:namedview
     id="base"
     pagecolor="#ffffff"
     bordercolor="#666666"
     borderopacity="1.0"
     inkscape:pageopacity="0.0"
     inkscape:pageshadow="2"
     inkscape:zoom="0.35355339"
     inkscape:cx="1043.7584"
     inkscape:cy="881.10112"
     inkscape:document-units="mm"
     inkscape:current-layer="layer1"
     showgrid="false"
     inkscape:window-width="1853"
     inkscape:window-height="1025"
     inkscape:window-x="67"
     inkscape:window-y="27"
     inkscape:window-maximized="1" />
  <metadata
     id="metadata5">
    <rdf:RDF>
      <cc:Work
         rdf:about="">
        <dc:format>image/svg+xml</dc:format>
        <dc:type
           rdf:resource="http://purl.org/dc/dcmitype/StillImage" />
        <dc:title></dc:title>
      </cc:Work>
    </rdf:RDF>
  </metadata>
  <g
     inkscape:label="Layer 1"
     inkscape:groupmode="layer"
     id="layer1"
     transform="translate(220.88289,-211.4331)">
    <ellipse
       style="opacity:0.98000004;fill:#ffff00;fill-opacity:1;fill-rule:nonzero;stroke:#000000;stroke-width:0.12605187;stroke-linecap:round;stroke-miterlimit:4;stroke-dasharray:none;stroke-opacity:0.43290046"
       id="path815"
       cx="-75.336861"
       cy="298.77322"
       rx="81.346657"
       ry="38.681675" />
    <path
       style="fill:none;stroke:#000000;stroke-width:0.12585367px;stroke-linecap:butt;stroke-linejoin:miter;stroke-opacity:1"
       d="m -38.183342,264.38952 0.391094,39.67351 H 5.2276147 v -0.33061 0"
       id="path819"
       inkscape:connector-curvature="0" />
    <path
       style="fill:none;stroke:#000000;stroke-width:0.12585367px;stroke-linecap:butt;stroke-linejoin:miter;stroke-opacity:1"
       d="m 5.2276147,303.73242 v 0 0 l 0.4936059,-1.75969 0.2074044,-0.75977 0.069138,-0.70134 0.069133,-1.22734 v -0.81822 -0.75978 l -0.1382713,-1.052 -0.1382713,-1.052 -0.5530801,-2.10401 -0.3456809,-1.28578 -0.7604897,-1.75334 -0.6222184,-1.16889 -0.6222235,-1.16889 -1.0370324,-1.34423 -1.31357498,-1.87023 -1.17530366,-1.578 -1.31357496,-1.40267 -1.5901177,-1.46112 -1.382708,-1.22734 -1.6592559,-1.34422 -1.5209794,-1.11045 -1.9357978,-1.16889 -1.797522,-1.16889 -2.074065,-1.34423 -2.419746,-1.11045 -3.111097,-1.40266 -2.212341,-0.87667 -2.765421,-1.1689 -2.350608,-0.81822 -3.180235,-1.16889 -2.696283,-0.70134 -1.728389,-0.58445 -3.805951,-0.88 v 0"
       id="path821"
       inkscape:connector-curvature="0" />
    <path
       style="opacity:0.98000004;fill:#00ffff;fill-opacity:1;fill-rule:nonzero;stroke:#000000;stroke-width:0.06366581;stroke-linecap:round;stroke-miterlimit:4;stroke-dasharray:none;stroke-opacity:0.43290046"
       d="m -37.688335,303.56736 c -0.02022,-0.23305 -0.101551,-7.6957 -0.18073,-16.58366 -0.07918,-8.88796 -0.163623,-17.58462 -0.187651,-19.32591 l -0.04369,-3.16597 0.996294,0.23361 c 1.211744,0.28412 4.872408,1.31308 6.54743,1.84037 8.53102,2.68556 15.879319,6.08328 21.7228341,10.04424 1.7211096,1.16663 2.8671969,2.03421 4.3558586,3.29735 2.4229647,2.05591 3.89052752,3.59697 5.24576546,5.50847 0.50881274,0.71766 1.16993204,1.62147 1.46915334,2.00846 1.0972795,1.41913 2.3668379,4.12354 2.9620406,6.30973 0.5152202,1.89242 0.6924501,3.18982 0.6928155,5.07173 2.738e-4,1.55351 -0.1380476,2.66899 -0.4861903,3.92002 -0.1507352,0.54166 -0.2740639,1.04793 -0.2740639,1.12506 v 0.14022 H -16.260016 -37.651567 Z"
       id="path823"
       inkscape:connector-curvature="0" />
    <path
       sodipodi:type="star"
       style="opacity:0.98000004;fill:#ffff00;fill-opacity:1;fill-rule:nonzero;stroke:#000000;stroke-width:0.26499999;stroke-linecap:round;stroke-miterlimit:4;stroke-dasharray:none;stroke-opacity:0"
       id="path825"
       sodipodi:sides="3"
       sodipodi:cx="-48.380955"
       sodipodi:cy="222.91667"
       sodipodi:r1="96.246727"
       sodipodi:r2="48.123363"
       sodipodi:arg1="-3.0708448"
       sodipodi:arg2="-2.0236472"
       inkscape:flatsided="true"
       inkscape:rounded="-2.94556e-15"
       inkscape:randomized="-3.0323e-15"
       d="M -144.38691,216.1131 5.5140889,143.17486 -6.2700408,309.46206 Z"
       inkscape:transform-center-x="14.961153"
       inkscape:transform-center-y="1.4618648"
       transform="matrix(0.71055966,0,0,0.42973598,-107.68942,201.04864)" />
    <ellipse
       style="opacity:0.98000004;fill:#000000;fill-opacity:1;fill-rule:nonzero;stroke:#000000;stroke-width:0.17953147;stroke-linecap:round;stroke-miterlimit:4;stroke-dasharray:none;stroke-opacity:0"
       id="path829"
       cx="-215.55357"
       cy="294.03244"
       rx="5.2395554"
       ry="4.4917746" />
    <path
       style="fill:none;stroke:#000000;stroke-width:0.60171932;stroke-linecap:butt;stroke-linejoin:miter;stroke-miterlimit:4;stroke-dasharray:none;stroke-opacity:1"
       d="m 8.3563325,350.01818 c 0,0 -139.6190125,1.65306 -150.5695225,0.66123 -10.95051,-0.99184 -16.03468,-7.27349 -16.03468,-7.27349"
       id="path831"
       inkscape:connector-curvature="0" />
    <path
       style="fill:none;stroke:#000000;stroke-width:0.60171932;stroke-linecap:butt;stroke-linejoin:miter;stroke-miterlimit:4;stroke-dasharray:none;stroke-opacity:1"
       d="m -95.28243,336.46306 0.782179,14.54696"
       id="path833"
       inkscape:connector-curvature="0" />
    <path
       style="fill:none;stroke:#000000;stroke-width:0.60171932;stroke-linecap:butt;stroke-linejoin:miter;stroke-miterlimit:4;stroke-dasharray:none;stroke-opacity:1"
       d="m 20.507876,354.1451 c 0,0 -139.619006,1.65306 -150.569516,0.66122 -10.95052,-0.99183 -16.03468,-7.27348 -16.03468,-7.27348"
       id="path831-3"
       inkscape:connector-curvature="0" />
    <path
       style="opacity:1;fill:none;stroke:#000000;stroke-width:0.60171932;stroke-linecap:butt;stroke-linejoin:miter;stroke-miterlimit:4;stroke-dasharray:none;stroke-opacity:1"
       d="m -73.381409,336.79368 v 18.18369"
       id="path850"
       inkscape:connector-curvature="0" />
    <path
       style="fill:none;stroke:#000000;stroke-width:0.60171932;stroke-linecap:butt;stroke-linejoin:miter;stroke-miterlimit:4;stroke-dasharray:none;stroke-opacity:1"
       d="m -76.510126,253.14869 0.391089,6.61225"
       id="path852"
       inkscape:connector-curvature="0" />
    <path
       style="fill:none;stroke:#000000;stroke-width:4.82184124;stroke-linecap:butt;stroke-linejoin:miter;stroke-miterlimit:4;stroke-dasharray:none;stroke-opacity:1"
       d="m -143.91313,288.14579 67.403004,-34.9971"
       id="path854"
       inkscape:connector-curvature="0" />
    <path
       style="fill:none;stroke:#000000;stroke-width:4.82184124;stroke-linecap:butt;stroke-linejoin:miter;stroke-miterlimit:4;stroke-dasharray:none;stroke-opacity:1"
       d="m -132.04486,213.80579 55.534734,39.3429"
       id="path856"
       inkscape:connector-curvature="0" />
    <path
       style="fill:none;stroke:#000000;stroke-width:4.82184124;stroke-linecap:butt;stroke-linejoin:miter;stroke-miterlimit:4;stroke-dasharray:none;stroke-opacity:1"
       d="m -11.600632,213.49054 -64.898104,39.64278"
       id="path858"
       inkscape:connector-curvature="0" />
    <path
       style="fill:none;stroke:#000000;stroke-width:4.82184124;stroke-linecap:butt;stroke-linejoin:miter;stroke-miterlimit:4;stroke-dasharray:none;stroke-opacity:1"
       d="M -17.86724,290.48865 -76.489559,253.16796"
       id="path860"
       inkscape:connector-curvature="0" />
    <path
       style="fill:none;stroke:#000000;stroke-width:0.12585367px;stroke-linecap:butt;stroke-linejoin:miter;stroke-opacity:1"
       d="m -16.966725,304.0465 c 0.08741,-0.025 -0.053,-0.97793 0,-1.15715 0.05525,-0.18681 0.134618,-0.22951 0.273764,-0.34714 0.04563,-0.0386 0.108022,-0.0669 0.13688,-0.11571 0.04299,-0.0727 -0.04304,-0.39013 0,-0.46286 0.02887,-0.0488 0.116475,-0.064 0.136879,-0.11572 0,-0.52676 -0.06452,-0.007 0.136885,-0.34714 0.03839,-0.0649 -0.03782,-0.41487 0,-0.46285 0.07159,-0.0908 0.21605,-0.13385 0.27376,-0.23143 0.04082,-0.069 -0.02887,-0.15825 0,-0.23143 0.02043,-0.0517 0.108027,-0.0669 0.136884,-0.11572 0.02038,-0.0345 -0.01443,-0.0791 0,-0.11571 0.03228,-0.0818 0.104618,-0.14961 0.13688,-0.23143 0.0297,-0.0753 0,-0.71312 0,-0.81 0,-0.0386 -0.01443,-0.0791 0,-0.11571 0.130201,-0.3302 0.453775,-0.37727 0.547524,-0.69429 0.03544,-0.11987 0,-0.33017 0,-0.46286 0,-0.30857 0,-0.61714 0,-0.92571 0,-0.96429 0,-1.92858 0,-2.89287 0,-0.30857 0,-0.61714 0,-0.92571 0,-0.0771 0,-0.15429 0,-0.23143 0,-0.0386 -0.01443,-0.0791 0,-0.11571 0.330497,-0.83817 -0.03947,0.18243 0.273764,-0.34715 0.04082,-0.069 -0.0506,-0.16724 0,-0.23143 0.07159,-0.0908 0.196334,-0.14415 0.273765,-0.23143 0.301572,-0.0583 0.07236,-0.23804 0.13688,-0.34714 0.05771,-0.0976 0.232951,-0.12793 0.273764,-0.23143 0.108426,-0.27498 -0.162038,-0.21016 0.13688,-0.46286 0.03228,-0.0273 0.09607,0.0172 0.136879,0 0.05772,-0.0244 0.07917,-0.0913 0.136885,-0.11571 0.04082,-0.0172 0.09607,0.0172 0.13688,0 0.05771,-0.0244 0.07917,-0.0913 0.13688,-0.11571 0.04082,-0.0172 0.09125,0 0.136884,0 0.09125,-0.0771 0.166384,-0.17092 0.27376,-0.23143 0.03797,-0.0214 0.0936,0.0122 0.136885,0 0.09679,-0.0273 0.176968,-0.0884 0.273759,-0.11571 0.07723,-0.0218 0.320698,0 0.410644,0 0.319389,0 0.638784,0 0.958173,0 0.08995,0 0.333415,0.0217 0.410644,0 0.849639,-0.23943 -0.454929,0.009 0.684404,-0.23144 0.08853,-0.0187 0.182509,0 0.2737643,0 0.2281344,0 0.4562689,0 0.6844086,0 0.3650142,0 0.7300335,0 1.0950476,0 0.1368849,0 0.2764237,-0.0227 0.4106442,0 0.1000445,0.0169 0.1747857,0.0948 0.2737645,0.11572 0.1008671,0.0213 0.6042147,-0.0339 0.6844086,0 0.1154253,0.0488 0.1513292,0.19693 0.2737594,0.23143 0.086573,0.0244 0.1871916,-0.0244 0.2737644,0 0.061218,0.0172 0.074281,0.10248 0.1368797,0.11571 0.1327978,0.0281 0.2764237,-0.0227 0.4106442,0 0.1000445,0.0169 0.1747856,0.0948 0.2737645,0.11572 0.088528,0.0187 0.1825096,0 0.2737644,0 0.04563,0 0.096071,-0.0172 0.1368797,0 0.1642577,0.0694 0.2463865,0.27771 0.4106442,0.34714 0.040819,0.0172 0.096071,-0.0172 0.1368796,0 0.057715,0.0244 0.091255,0.0771 0.1368849,0.11571 0.04563,0.0386 0.1164755,0.064 0.1368796,0.11572 0.020849,0.0529 -0.030472,0.41137 0,0.46286 0.082129,0.13886 0.3285153,0.20828 0.4106442,0.34714 0.040819,0.069 -0.040819,0.16243 0,0.23143 0.028868,0.0488 0.1164755,0.064 0.1368796,0.11571 0.089123,0.22602 -0.058828,0.26491 -0.1368796,0.46286 -0.026436,0.067 0,0.36258 0,0.46286 0,0.34714 0,0.69428 0,1.04143 0,0.84857 0,1.69714 0,2.54572 0,0.30857 0,0.61714 0,0.92571 0,0.10646 0.024626,0.243 0,0.34714 -0.036887,0.15595 -0.099988,0.30691 -0.1368797,0.46286 -0.0358,0.15129 0.025816,0.31012 0,0.46286 -0.026592,0.15744 -0.1059578,0.30598 -0.1368848,0.46286 -0.015003,0.0761 0.015003,0.15533 0,0.23143 -0.142436,0.72247 -0.062558,0.22148 -0.4106442,0.81 -0.064523,0.10909 -0.091255,0.23143 -0.1368796,0.34714 -0.04563,0.11572 -0.108586,0.22754 -0.1368797,0.34714 -0.0179,0.0756 0.015003,0.15534 0,0.23143 -0.030937,0.15687 -0.099988,0.30691 -0.1368848,0.46286 -0.00895,0.0378 0.014434,0.0791 0,0.11572 -0.1654114,0.41949 -0.064943,0.0824 -0.2737594,0.34714 -0.056592,0.0718 -0.091255,0.15428 -0.1368848,0.23142 -0.04563,0.0772 -0.1046179,0.14961 -0.1368796,0.23143 -0.025764,0.0653 0,0.27111 0,0.34715 0,0.19285 0,0.38571 0,0.57857"
       id="path862"
       inkscape:connector-curvature="0" />
    <path
       style="fill:none;stroke:#000000;stroke-width:0.12585367px;stroke-linecap:butt;stroke-linejoin:miter;stroke-opacity:1"
       d="m -3.8261124,295.02078 c 0.4166712,-0.003 0.7163807,-0.0444 1.0950528,0.11571 0.057715,0.0244 0.079164,0.0913 0.1368796,0.11571 0.1290522,0.0546 0.2737645,0.0771 0.4106442,0.11572 0.2737645,0.0771 0.5575914,0.13235 0.8212883,0.23143 0.2796933,0.10508 0.53363822,0.25872 0.82128831,0.34714 0.28076937,0.29949 0.64516788,0.0496 0.95816797,0.11572 0.0989788,0.0209 0.17478567,0.0948 0.27376449,0.11571 0.11651689,0.0246 0.60582883,-0.0332 0.68440863,0 0.1642577,0.0694 0.2463865,0.27771 0.4106442,0.34714 0.040819,0.0172 0.096071,-0.0173 0.1368796,0 0.087189,0.0369 0.5768522,0.48765 0.6844087,0.57858 0.04563,0.0386 0.079164,0.0913 0.1368796,0.11571 0.040819,0.0172 0.1046179,-0.0273 0.1368797,0 0.032282,0.0273 -0.020383,0.0812 0,0.11571 0.028868,0.0488 0.091255,0.0772 0.1368848,0.11572 0.091255,0.0771 0.1825045,0.15428 0.2737594,0.23143 0.04563,0.0386 0.1010896,0.0703 0.1368848,0.11571 0.056593,0.0718 0.080287,0.15967 0.1368797,0.23143 0.071585,0.0908 0.2160492,0.13385 0.2737644,0.23143 0.020383,0.0345 -0.032282,0.0884 0,0.11571 0.2832113,0.23942 -0.011071,-0.36586 0.2737594,0.11572 0.043457,0.0734 -0.044388,0.54105 0,0.57857 0.032282,0.0273 0.1164806,-0.0345 0.1368848,0 0.1368797,0.23143 -0.06844,0.17357 0,0.34714 0.3304968,0.83817 -0.039474,-0.18243 0.2737593,0.34715 0.040819,0.069 -0.040819,0.16243 0,0.23143 0.028868,0.0488 0.1164807,0.064 0.1368849,0.11571 0.028868,0.0732 0,0.15429 0,0.23143 0,0.0386 -0.020384,0.0812 0,0.11571 0.028868,0.0488 0.108022,0.0669 0.1368796,0.11572 0.1211575,0.20484 -0.2036019,0.0395 0.1368797,0.23143 0.084891,0.0478 0.2016204,0.0547 0.2737645,0.11571 0.032282,0.0273 -0.025298,0.0836 0,0.11572 0.2971123,0.37674 0.2546278,0.0672 0.4106441,0.46285 0.028868,0.0732 -0.050597,0.16724 0,0.23143 0.071585,0.0908 0.2021792,0.14066 0.2737645,0.23143 0.050597,0.0642 -0.040819,0.16243 0,0.23143 0.028868,0.0488 0.1348724,0.17024 0.1368797,0.11572 0.013503,-0.36687 -0.067152,-0.73189 -0.1007223,-1.09783"
       id="path864"
       inkscape:connector-curvature="0" />
    <path
       style="fill:none;stroke:#000000;stroke-width:0.12585367px;stroke-linecap:butt;stroke-linejoin:miter;stroke-opacity:1"
       d="m -3.8261124,295.02078 c 1.2183779,-1.3804 0.040922,1.43867 0.6844086,1.62 0.086573,0.0244 0.1852309,-0.0187 0.2737593,0 0.098979,0.0209 0.1747857,0.0948 0.2737645,0.11571 0.088528,0.0187 0.1852361,-0.0187 0.2737645,0 0.2209848,0.0467 0.2714985,0.1138 0.4106442,0.23143 0.04563,0.0386 0.079164,0.0913 0.1368796,0.11572 0.1095069,0.0463 0.3011374,-0.0463 0.4106442,0 0.64637847,0.27321 -0.8354688,-0.0609 0.54752381,0.23142 0.13290127,0.0281 0.60567879,-0.0333 0.68440865,0 0.104561,0.0442 0.31795627,0.32103 0.41064416,0.34715 0.0626093,0.0176 0.48661655,-0.0258 0.54752381,0 0.0577152,0.0244 0.0791696,0.0913 0.13688484,0.11571 0.0816166,0.0345 0.19214263,-0.0345 0.27375933,0 0.036369,0.0154 0.3924749,0.31642 0.4106441,0.34715 0.020383,0.0345 -0.020383,0.0812 0,0.11571 0.028868,0.0488 0.1010896,0.0703 0.1368849,0.11571 0.056593,0.0718 0.064736,0.17044 0.1368796,0.23143 0.032282,0.0273 0.098917,-0.0214 0.1368797,0 0.1610708,0.0908 0.2737645,0.23143 0.4106441,0.34715 0.2281397,0.19285 0.4562742,0.38571 0.6844087,0.57857 0.1069149,0.0904 0.2925287,0.28057 0.4106442,0.34714 0.084891,0.0478 0.188873,0.0679 0.2737644,0.11572 0.1280952,0.0722 0.4598594,0.38874 0.5475239,0.46285 0.04563,0.0386 0.091255,0.0772 0.1368796,0.11572 0.04563,0.0386 0.1080272,0.0669 0.1368849,0.11571 0.020383,0.0345 -0.020384,0.0812 0,0.11572 0.028868,0.0488 0.108022,0.0669 0.1368796,0.11571 0.020383,0.0345 -0.020384,0.0812 0,0.11572 0.028868,0.0488 0.1080221,0.0669 0.1368797,0.11571 0.020383,0.0345 -0.020384,0.0812 0,0.11572 0.028868,0.0488 0.1368848,0.0612 0.1368848,0.11571 0,0.0863 -0.1046179,0.14961 -0.1368848,0.23143 -0.028661,0.0726 0,0.3697 0,0.46286 0,0.0386 -0.032282,0.0884 0,0.11571 0.032282,0.0273 0.1046179,-0.0273 0.1368848,0 0.064523,0.0546 -0.040819,0.16243 0,0.23143 0.028868,0.0488 0.1080221,0.0669 0.1368797,0.11571 0.020383,0.0345 0.04563,0.11572 0,0.11572 -0.04563,0 -5.174e-4,-0.15428 0,-0.11572 0.00719,0.39673 0.013037,0.79347 0.019556,1.19021"
       id="path866"
       inkscape:connector-curvature="0" />
    <path
       style="fill:none;stroke:#000000;stroke-width:0.12585367px;stroke-linecap:butt;stroke-linejoin:miter;stroke-opacity:1"
       d="m -3.6892328,298.60792 c 0.1825097,0.0386 0.3728572,0.0567 0.547529,0.11572 0.059909,0.0202 0.083189,0.0855 0.1368797,0.11571 0.2359309,0.13296 0.2069077,0.11572 0.4106441,0.11572 0.04563,0 0.096071,-0.0172 0.1368797,0 0.057715,0.0244 0.07917,0.0913 0.1368848,0.11571 0.083117,0.0351 0.7381714,-0.0351 0.8212883,0 0.1154253,0.0488 0.166384,0.17091 0.2737594,0.23143 0.068936,0.25494 0.28159191,0.0612 0.41064411,0.11571 0.0577152,0.0244 0.0742859,0.10249 0.13688484,0.11572 0.13279262,0.0281 0.27784636,-0.0281 0.41064415,0 0.062599,0.0132 0.0791644,0.0913 0.13687966,0.11571 0.04081868,0.0172 0.09607133,-0.0172 0.13687966,0 0.05771523,0.0244 0.09125483,0.0771 0.13688484,0.11572 0.15661127,0.13239 0.16203307,0.16137 0.41064415,0.23143 0.0865728,0.0244 0.18719165,-0.0244 0.27375932,0 0.0967904,0.0273 0.17697407,0.0884 0.27376447,0.11571 0.043302,0.0122 0.093593,-0.0122 0.1368797,0 0.09679,0.0273 0.176974,0.0884 0.2737645,0.11572 0.094152,0.0265 0.3298811,-0.0342 0.4106441,0 0.2687049,0.11357 0.061626,0.2199 0.1368797,0.34714 0.028868,0.0488 0.1080272,0.0669 0.1368848,0.11571 0.020384,0.0345 -0.020383,0.0812 0,0.11572 0.028868,0.0488 0.1080221,0.0669 0.1368797,0.11571 0.040819,0.069 -0.064523,0.17688 0,0.23143 0.032282,0.0273 0.096071,-0.0172 0.1368796,0 0.1154305,0.0488 0.1583393,0.18264 0.2737645,0.23143 0.086035,0.0364 0.4614942,-0.0363 0.5475239,0 0.1154304,0.0488 0.1583392,0.18264 0.2737645,0.23143 0.040819,0.0172 0.096071,-0.0172 0.1368796,0 0.057715,0.0244 0.091255,0.0771 0.1368848,0.11571 0.04563,0.0386 0.091255,0.0772 0.1368797,0.11571 0.04563,0.0386 0.091255,0.0772 0.1368797,0.11572 0.04563,0.0386 0.1164806,0.064 0.1368848,0.11572 0.028868,0.0732 -0.022142,0.15658 0,0.23143 0.024729,0.0837 0.1046179,0.1496 0.1368797,0.23142 0.048475,0.12296 -0.048475,0.3399 0,0.46286 0.032282,0.0818 0.1121349,0.14775 0.1368796,0.23143 0.1185294,0.4008 -0.1733267,0.0695 0.1368849,0.46285 0.071585,0.0908 0.2160492,0.13385 0.2737593,0.23143 0.040819,0.069 -0.040819,0.16243 0,0.23143 0.028868,0.0488 0.091255,0.0771 0.1368848,0.11572 0.04563,0.0386 0.1030607,0.16217 0.1368797,0.11571 0.068409,-0.094 0.013037,-0.22041 0.019556,-0.33061"
       id="path868"
       inkscape:connector-curvature="0" />
    <path
       style="fill:none;stroke:#000000;stroke-width:0.12585367px;stroke-linecap:butt;stroke-linejoin:miter;stroke-opacity:1"
       d="m -3.6892328,298.60792 c 1.0053294,-1.06997 -0.1651889,1.66589 0.547529,1.96715 0.040819,0.0172 0.096071,-0.0172 0.1368797,0 0.057715,0.0244 0.074281,0.10248 0.1368796,0.11571 0.1327978,0.0281 0.2778516,-0.0281 0.4106442,0 0.062604,0.0132 0.07917,0.0913 0.1368848,0.11572 0.040819,0.0172 0.092616,-0.009 0.1368797,0 0.1399786,0.0296 0.2815919,0.0612 0.4106441,0.11571 0.057715,0.0244 0.07917,0.0913 0.1368797,0.11572 0.1290574,0.0545 0.2737645,0.0771 0.4106442,0.11571 0.1368848,0.0386 0.26832196,0.0957 0.41064411,0.11572 0.97086367,0 0.0801836,-0.0818 0.54752899,0.11571 0.0408187,0.0172 0.0912548,0 0.13687966,0 0.23221636,0 0.49632716,-0.0433 0.68440865,0.11571 0.0645235,0.0546 -0.0645287,0.17688 0,0.23143 0.0322824,0.0273 0.0960713,-0.0173 0.13687966,0 0.0363178,0.0154 0.39246973,0.31642 0.41064413,0.34715 0.020383,0.0345 -0.020383,0.0812 0,0.11571 0.057715,0.0976 0.2160493,0.13385 0.2737645,0.23143 0.020383,0.0345 -0.020384,0.0812 0,0.11571 0.028868,0.0488 0.1164755,0.064 0.1368797,0.11572 0.028868,0.0732 -0.028868,0.15824 0,0.23142 0.00569,0.0144 0.3871618,0.33722 0.4106441,0.34715 0.040819,0.0172 0.096071,-0.0172 0.1368797,0 0.057715,0.0244 0.091255,0.0771 0.1368848,0.11572 0.091255,0.0771 0.166384,0.17091 0.2737593,0.23142 0.075931,0.0428 0.1921427,-0.0345 0.2737645,0 0.1154305,0.0488 0.1583341,0.18264 0.2737645,0.23143 0.040819,0.0172 0.096071,-0.0172 0.1368797,0 0.057715,0.0244 0.083195,0.0855 0.1368797,0.11571 0.084891,0.0478 0.1825096,0.0771 0.2737645,0.11572 0.2737644,0.11571 0.5475238,0.23143 0.8212883,0.34714 0.091255,0.0386 0.176974,0.0884 0.2737645,0.11572 0.043302,0.0122 0.096071,-0.0173 0.1368796,0 0.057715,0.0244 0.091255,0.0771 0.1368797,0.11571 0.04563,0.0386 0.091255,0.0771 0.1368848,0.11571 0.04563,0.0386 0.1245203,0.16926 0.1368797,0.11572 0.059929,-0.25965 0.013037,-0.52898 0.019556,-0.79347"
       id="path870"
       inkscape:connector-curvature="0" />
    <path
       style="opacity:1;fill:#e80000;fill-opacity:1;fill-rule:nonzero;stroke:#000000;stroke-width:0.0585071;stroke-linecap:round;stroke-miterlimit:4;stroke-dasharray:none;stroke-opacity:1"
       d="m -16.804697,303.74984 c -0.137607,-0.30314 -0.09426,-0.74655 0.104787,-1.07197 0.232197,-0.3796 0.496534,-1.07493 0.496534,-1.30612 0,-0.0949 0.123194,-0.3881 0.273763,-0.65155 0.15057,-0.26345 0.273763,-0.70882 0.273763,-0.9897 0,-0.33549 0.09392,-0.61164 0.273763,-0.80492 0.256866,-0.27605 0.273762,-0.46943 0.273762,-3.13306 0,-1.76775 0.05165,-2.86584 0.136882,-2.91037 0.07529,-0.0393 0.136881,-0.17422 0.136881,-0.29975 0,-0.12552 0.09239,-0.2582 0.205322,-0.29483 0.112927,-0.0366 0.207281,-0.15216 0.209675,-0.25673 0.0024,-0.10457 0.09282,-0.28892 0.200938,-0.40967 0.108121,-0.12075 0.171047,-0.25447 0.139837,-0.29717 -0.03121,-0.0427 0.269499,-0.21727 0.668246,-0.38795 0.583668,-0.24984 0.914209,-0.31033 1.695632,-0.31033 0.57708,0 1.009613,-0.0533 1.066767,-0.13149 0.120947,-0.16544 3.7422033,-0.0687 3.8711619,0.10341 0.047776,0.0638 0.4564433,0.18394 0.9081519,0.26706 0.9785198,0.18008 1.4270993,0.42082 1.4329523,0.76901 0.00237,0.14072 0.1391098,0.36202 0.3038753,0.49179 0.1647655,0.12976 0.2496183,0.23594 0.1885624,0.23594 -0.061057,0 -0.037599,0.0748 0.052129,0.16617 0.1225225,0.1248 0.1247195,0.22686 0.00883,0.40993 -0.1032003,0.16301 -0.1481357,1.11409 -0.1356604,2.87133 0.020098,2.83087 -0.1359163,4.19923 -0.565665,4.96132 -0.1495922,0.26527 -0.3085813,0.68185 -0.3533114,0.92571 -0.04473,0.24387 -0.2264648,0.68901 -0.4038562,0.9892 -0.1773914,0.30019 -0.3225295,0.70374 -0.3225295,0.89679 v 0.35099 h -5.5290503 c -4.9155,0 -5.538272,-0.0203 -5.612137,-0.18304 z"
       id="path872"
       inkscape:connector-curvature="0" />
    <path
       style="opacity:1;fill:#e80000;fill-opacity:1;fill-rule:nonzero;stroke:#000000;stroke-width:0.0585071;stroke-linecap:round;stroke-miterlimit:4;stroke-dasharray:none;stroke-opacity:1"
       d="m 2.7273073,299.00428 c -1.2281066,-1.03148 -1.701541,-1.35577 -2.04885146,-1.40341 -0.24842465,-0.0341 -0.52180689,-0.13339 -0.60751517,-0.2207 -0.08570827,-0.0873 -0.31768252,-0.15951 -0.51549802,-0.16047 -0.41977277,-0.002 -1.27229325,-0.23732 -1.54147325,-0.42544 -0.1028513,-0.0719 -0.4179906,-0.16717 -0.7003084,-0.21177 l -0.5133052,-0.0811 v -0.69379 c 0,-0.616 0.026857,-0.68426 0.2395424,-0.60875 0.1317483,0.0468 0.5398136,0.18477 0.9068118,0.30668 0.3669981,0.1219 0.8906995,0.318 1.16378055,0.43578 0.2730811,0.11777 0.91905309,0.25238 1.43549286,0.29913 0.93883789,0.085 0.93912949,0.0851 1.91605059,0.91097 1.2652726,1.06958 1.5976836,1.42942 1.506344,1.63065 -0.040947,0.0902 -0.024576,0.23159 0.036382,0.31419 0.060956,0.0826 0.1296581,0.25257 0.1526706,0.37772 0.023013,0.12514 0.1325888,0.34461 0.2435024,0.48771 0.1109137,0.1431 0.2016619,0.28805 0.2016619,0.32211 0,0.22158 -0.4692349,-0.0986 -1.8752873,-1.27952 z"
       id="path874"
       inkscape:connector-curvature="0" />
    <path
       style="opacity:1;fill:#e80000;fill-opacity:1;fill-rule:nonzero;stroke:#000000;stroke-width:0.0585071;stroke-linecap:round;stroke-miterlimit:4;stroke-dasharray:none;stroke-opacity:1"
       d="m 3.0279755,303.66739 c -0.8632055,-0.40203 -1.4367713,-0.77841 -1.4367713,-0.94284 0,-0.0831 -0.2531389,-0.43998 -0.5625305,-0.79301 -0.5238341,-0.59771 -0.61092898,-0.64736 -1.26615279,-0.72176 -0.38699241,-0.0439 -1.04240371,-0.19729 -1.45646991,-0.34077 -0.4140662,-0.14348 -0.9222383,-0.29487 -1.1292714,-0.33642 -0.3669284,-0.0737 -0.3764238,-0.0963 -0.3764238,-0.89752 0,-0.68977 0.03069,-0.80043 0.190829,-0.68808 0.1049566,0.0736 0.5108099,0.16592 0.901895,0.20508 0.3959705,0.0396 0.7418588,0.13903 0.7805566,0.22428 0.03822,0.0842 0.2945304,0.1854 0.56957981,0.22491 0.27504945,0.0395 0.65408085,0.16298 0.84229275,0.2744 0.1882119,0.11141 0.66262087,0.27196 1.05424394,0.35677 0.592305,0.12827 0.7398371,0.214 0.877344,0.50982 0.1981385,0.42626 0.6354677,0.7543 1.0113618,0.75863 0.3550539,0.004 1.0571555,0.48051 1.1266392,0.76452 0.061653,0.25199 0.1495566,0.68329 0.2140729,1.05032 0.024236,0.13789 0.1250124,0.33316 0.2239461,0.43393 0.1595325,0.1625 0.1121812,0.18265 -0.418627,0.1781 -0.3501385,-0.003 -0.8259177,-0.11105 -1.1465144,-0.26036 z"
       id="path876"
       inkscape:connector-curvature="0" />
    <ellipse
       style="opacity:1;fill:#e89500;fill-opacity:1;fill-rule:nonzero;stroke:#000000;stroke-width:0.0585071;stroke-linecap:round;stroke-miterlimit:4;stroke-dasharray:none;stroke-opacity:1"
       id="path878"
       cx="-8.7538433"
       cy="287.90433"
       rx="5.064611"
       ry="3.8764329" />
    <path
       style="fill:none;stroke:#000000;stroke-width:0.55415255;stroke-linecap:butt;stroke-linejoin:miter;stroke-miterlimit:4;stroke-dasharray:none;stroke-opacity:1"
       d="m -5.1949246,285.30077 c -0.2355791,-0.17134 -0.566619,-0.20362 -0.8212883,-0.34715 -0.05369,-0.0303 -0.075667,-0.0985 -0.1368848,-0.11571 -0.086568,-0.0244 -0.1871865,0.0244 -0.2737593,0 -0.061218,-0.0172 -0.07917,-0.0913 -0.1368848,-0.11572 -0.040819,-0.0172 -0.096071,0.0172 -0.1368797,0 -0.1154253,-0.0488 -0.158334,-0.18264 -0.2737645,-0.23143 -0.040819,-0.0172 -0.098917,0.0214 -0.1368797,0 -0.1073753,-0.0605 -0.1513291,-0.19693 -0.2737645,-0.23142 -0.8212883,-0.23143 -0.2737593,0.11571 -0.8212883,0 -0.098979,-0.0209 -0.1747805,-0.0948 -0.2737593,-0.11572 -0.088528,-0.0187 -0.1825096,0 -0.2737645,0 -0.04563,0 -0.096071,0.0172 -0.1368796,0 -0.057715,-0.0244 -0.07917,-0.0913 -0.1368849,-0.11571 -0.040819,-0.0172 -0.091255,0 -0.1368796,0 -0.091255,0 -0.1852309,0.0187 -0.2737645,0 -0.1441225,-0.0304 -0.2479593,-0.16156 -0.4106442,-0.11572 -0.6036409,0.1701 -0.1444846,0.0129 -0.2737589,0.23143 -0.02887,0.0488 -0.108028,0.0669 -0.136885,0.11572 -0.02038,0.0345 0.02038,0.0812 0,0.11571 -0.02887,0.0488 -0.108022,0.0669 -0.13688,0.11571 -0.02038,0.0345 0.02038,0.0812 0,0.11572 -0.02887,0.0488 -0.101089,0.0703 -0.13688,0.11571 -0.05659,0.0718 -0.06474,0.17045 -0.136884,0.23143 -0.04511,0.0381 -0.448468,-0.0279 -0.547524,0 -0.06121,0.0172 -0.07567,0.0985 -0.13688,0.11572 -0.08657,0.0244 -0.192143,-0.0345 -0.273764,0 -0.115426,0.0488 -0.18251,0.15428 -0.273765,0.23143 -0.228134,0.19285 -0.456269,0.38571 -0.684403,0.57857 -0.04563,0.0386 -0.09126,0.0771 -0.136885,0.11571 -0.04563,0.0386 -0.07916,0.0913 -0.13688,0.11572 -0.04082,0.0172 -0.09126,0 -0.136879,0 -0.09126,0.0386 -0.192143,0.064 -0.273765,0.11571 -0.190699,0.12091 -0.374833,0.31687 -0.547524,0.46286 -0.04563,0.0386 -0.09125,0.0771 -0.136885,0.11571 -0.04563,0.0386 -0.108022,0.0669 -0.136879,0.11572 -0.02038,0.0345 0.02038,0.0812 0,0.11571 -0.02887,0.0488 -0.108022,0.0669 -0.13688,0.11572 -0.02038,0.0345 0,0.0771 0,0.11571 0,0.0771 0.02214,0.15659 0,0.23143 -0.02473,0.0837 -0.104618,0.14961 -0.136885,0.23143 -0.01443,0.0366 0.01443,0.0791 0,0.11571 -0.03228,0.0818 -0.104618,0.14961 -0.136879,0.23143 -0.02887,0.0732 0.02887,0.15824 0,0.23143 -0.165412,0.4195 -0.06494,0.0823 -0.273765,0.34714 -0.301567,0.0583 -0.07235,0.23805 -0.13688,0.34714 -0.02887,0.0488 -0.108022,0.0669 -0.136879,0.11572 -0.02038,0.0345 0,0.0771 0,0.11572 0,0.13835 0.0298,0.61876 0,0.69428 -0.03228,0.0818 -0.112135,0.14775 -0.136885,0.23143 -0.03321,0.11226 0.0433,0.23737 0,0.34715 -0.330492,0.83816 0.03947,-0.18244 -0.273759,0.34714 -0.02038,0.0345 0.02038,0.0812 0,0.11571 -0.07357,0.12439 -0.200193,0.22275 -0.273765,0.34714 -0.02038,0.0345 0,0.0772 0,0.11572 -0.04563,0.0771 -0.07567,0.16243 -0.13688,0.23143 -0.07743,0.0873 -0.182509,0.15428 -0.273764,0.23143 -0.04563,0.0386 -0.07916,0.0913 -0.13688,0.11571 -0.04082,0.0172 -0.09892,-0.0214 -0.136885,0 -0.107375,0.0605 -0.166384,0.17091 -0.273759,0.23143 -0.07593,0.0428 -0.192143,-0.0345 -0.273764,0 -0.626451,0.26479 0.580846,-0.048 -0.410645,0.23143 -0.0433,0.0122 -0.09607,-0.0172 -0.136879,0 -0.05772,0.0244 -0.07917,0.0913 -0.136885,0.11571 -0.04082,0.0172 -0.09126,0 -0.13688,0 -0.09126,0.0771 -0.170517,0.16597 -0.273764,0.23143 -0.08162,0.0517 -0.188873,0.0679 -0.273759,0.11572 -0.107381,0.0605 -0.166384,0.17091 -0.273765,0.23142 -0.08489,0.0479 -0.188873,0.0679 -0.273764,0.11572 -0.107376,0.0605 -0.182505,0.15428 -0.27376,0.23143"
       id="path891"
       inkscape:connector-curvature="0" />
    <path
       style="fill:none;stroke:#000000;stroke-width:0.12585367px;stroke-linecap:butt;stroke-linejoin:miter;stroke-opacity:1"
       d="m -5.1949246,285.30077 c -2.8115117,-10e-6 -0.113061,0.12074 -1.2319324,-0.11572 -0.088528,-0.0187 -0.1825097,0 -0.2737645,0 -0.04563,0 -0.096071,0.0172 -0.1368797,0 -0.057715,-0.0244 -0.07917,-0.0913 -0.1368848,-0.11571 -0.1095017,-0.0463 -0.3011373,0.0463 -0.4106442,0 -0.1154252,-0.0488 -0.1663839,-0.17092 -0.2737593,-0.23143 -0.037973,-0.0214 -0.093598,0.0122 -0.1368848,0 -0.7755238,-0.3278 0.204052,0.0431 -0.5475238,-0.11572 -0.098979,-0.0209 -0.1747857,-0.0948 -0.2737645,-0.11571 -0.088528,-0.0187 -0.184279,0.0151 -0.2737593,0 -0.1414841,-0.0239 -0.2706656,-0.0861 -0.4106442,-0.11572 -0.1158857,-0.0245 -0.4054086,0 -0.547529,0 -0.3193889,0 -0.6387789,0 -0.9581679,0 -0.273765,0 -0.547524,0 -0.821288,0 -0.04563,0 -0.09126,0 -0.13688,0 -0.04563,0 -0.09607,-0.0172 -0.136885,0 -0.369401,0.15614 0.0047,0.0519 -0.13688,0.23143 -0.07159,0.0908 -0.202174,0.14066 -0.273764,0.23143 -0.01945,0.0247 0,0.48205 0,0.57857 0,0.0686 -0.02623,0.85915 0,0.92572 0.02038,0.0517 0.108027,0.0669 0.136885,0.11571 0.02038,0.0345 0,0.0772 0,0.11572 0,0.0386 0.02038,0.0812 0,0.11571 -0.02887,0.0488 -0.108027,0.0669 -0.136885,0.11572 -0.02038,0.0345 0,0.0771 0,0.11571 -0.04563,0.0771 -0.08029,0.15966 -0.13688,0.23143 -0.295524,0.37474 0.01702,-0.0482 -0.273764,0.11572 -0.211968,0.11946 -0.476906,0.43824 -0.684404,0.57857 -0.128462,0.0869 -0.279036,0.14798 -0.410644,0.23143 -0.148044,0.0939 -0.279636,0.23639 -0.410644,0.34714 -0.145866,0.12331 -0.416454,0.31512 -0.547529,0.46285 -0.09871,0.11126 -0.175055,0.23589 -0.273759,0.34715 -0.187937,0.21183 -0.14137,0.0114 -0.273765,0.34714 -0.02887,0.0732 0.02887,0.15825 0,0.23143 -0.03228,0.0818 -0.112135,0.14775 -0.136879,0.23143 -0.09415,0.31836 0.136181,0.23232 -0.136885,0.57857 -0.208817,0.26479 -0.108348,-0.0724 -0.27376,0.34714 -0.0298,0.0755 0,0.55594 0,0.69429 0,0.0386 0.02038,0.0812 0,0.11572 -0.02887,0.0488 -0.09125,0.0771 -0.136884,0.11571 -0.04563,0.0386 -0.09126,0.0771 -0.13688,0.11571 -0.04563,0.0386 -0.09126,0.0772 -0.13688,0.11572 -0.04563,0.0386 -0.07567,0.0985 -0.136885,0.11571 -0.07006,0.0197 -0.723427,0 -0.821288,0 -0.04563,0 -0.104618,-0.0273 -0.13688,0 -0.03228,0.0273 0.01443,0.0791 0,0.11572 -0.157283,0.39889 -0.136879,0.0857 -0.136879,0.34714 0,0.57857 0,1.15715 0,1.73572 0,0.11571 0,0.23143 0,0.34714 0,0.0386 0.01443,0.0791 0,0.11572 -0.03228,0.0818 -0.06768,0.2948 -0.136885,0.23142 -0.575662,-0.5272 -1.003793,-1.15714 -1.505692,-1.73571"
       id="path893"
       inkscape:connector-curvature="0" />
    <path
       style="fill:none;stroke:#000000;stroke-width:0.12585367px;stroke-linecap:butt;stroke-linejoin:miter;stroke-opacity:1"
       d="m -7.7956743,284.83791 c -0.2281345,0.69428 -0.4148554,1.39926 -0.6844035,2.08286 -0.014434,0.0366 -0.091255,0 -0.1368848,0 -0.091255,0 -0.1871865,-0.0244 -0.2737593,0 -0.061218,0.0172 -0.1036815,0.0689 -0.1368849,0.11571 -0.1574752,0.22187 -0.2408612,0.479 -0.4106441,0.69429 -0.0358,0.0454 -0.091255,0.0771 -0.1368797,0.11571 -0.091255,0.0772 -0.1825097,0.15429 -0.2737645,0.23143 -0.2281349,0.19286 -0.4562689,0.38572 -0.6844039,0.57857 -0.04563,0.0386 -0.08319,0.0855 -0.136884,0.11572 -0.08489,0.0478 -0.188873,0.0679 -0.27376,0.11571 -0.05369,0.0303 -0.09125,0.0772 -0.136885,0.11571 -0.228134,0.19286 -0.456269,0.38572 -0.684403,0.57858 -0.09126,0.0771 -0.18251,0.15429 -0.273765,0.23143 -0.04563,0.0386 -0.07916,0.0913 -0.136879,0.11571 -0.04082,0.0172 -0.09607,-0.0172 -0.136885,0 -0.05771,0.0244 -0.07916,0.0913 -0.13688,0.11571 -0.04165,0.0176 -0.348997,0 -0.410644,0 -0.273764,0 -0.547524,0 -0.821288,0 -0.13688,0 -0.276419,-0.0227 -0.410644,0 -0.100045,0.0169 -0.174786,0.0948 -0.273765,0.11572 -0.08853,0.0187 -0.192142,-0.0345 -0.273759,0 -0.891332,0.37675 0.272859,0.11597 -0.547529,0.34715 -0.129854,0.0366 -0.280785,-0.0366 -0.410644,0 -0.06121,0.0172 -0.07566,0.0985 -0.13688,0.11571 -0.623124,0 -0.0078,-0.0546 -0.410644,0.11571 -0.08162,0.0345 -0.192143,-0.0345 -0.273765,0 -0.302648,0.12792 -0.04247,0.0718 -0.136879,0.23143 -0.02887,0.0488 -0.09126,0.0771 -0.13688,0.11571 0,0.0772 0.02214,0.15659 0,0.23143 -0.02473,0.0837 -0.104618,0.14961 -0.136885,0.23143 -0.01443,0.0366 0.01443,0.0791 0,0.11572 -0.03228,0.0818 -0.104618,0.14961 -0.136879,0.23143 -0.02887,0.0732 0.0179,0.15578 0,0.23142 -0.03689,0.15595 -0.09999,0.30692 -0.13688,0.46286 -0.0089,0.0378 0.0253,0.0836 0,0.11572 -0.07158,0.0908 -0.202179,0.14065 -0.273765,0.23143 -0.0253,0.0321 0.01443,0.0791 0,0.11571 -0.330496,0.83817 0.03947,-0.18244 -0.273764,0.34714 -0.320119,0.0602 -0.0835,0.32748 -0.13688,0.46286 -0.02023,0.0513 -0.285301,0.52172 -0.410644,0.46286 -0.394844,-0.18544 -0.638778,-0.54 -0.958168,-0.81"
       id="path895"
       inkscape:connector-curvature="0" />
    <path
       style="fill:none;stroke:#000000;stroke-width:0.12585367px;stroke-linecap:butt;stroke-linejoin:miter;stroke-opacity:1"
       d="m -7.7956743,284.83791 c -0.456269,0.46285 -0.9125432,0.92571 -1.3688121,1.38857 -0.04563,0 -0.1046179,-0.0273 -0.1368797,0 -0.072144,0.061 -0.080287,0.15967 -0.1368848,0.23143 -0.0358,0.0454 -0.091255,0.0771 -0.1368797,0.11571 -0.1825097,0.15429 -0.3650193,0.30858 -0.5475234,0.46286 -0.22814,0.19286 -0.456275,0.38572 -0.684409,0.57857 -0.09126,0.0772 -0.18251,0.15429 -0.273765,0.23143 -0.04563,0.0386 -0.08319,0.0855 -0.136879,0.11572 -0.08489,0.0478 -0.188873,0.0679 -0.273765,0.11571 -0.05368,0.0303 -0.09126,0.0771 -0.136879,0.11572 -0.09126,0.0771 -0.18251,0.15428 -0.273765,0.23143 -0.319389,0.27 -0.638779,0.54 -0.958168,0.81 -0.04563,0.0386 -0.108022,0.0669 -0.136879,0.11571 -0.02038,0.0345 0,0.0771 0,0.11572 -0.04563,0.0771 -0.08029,0.15966 -0.136885,0.23142 -0.07159,0.0908 -0.182505,0.15429 -0.27376,0.23143 -0.09125,0.0771 -0.182509,0.15429 -0.273764,0.23143 -0.04563,0.0386 -0.07917,0.0913 -0.13688,0.11571 -0.04082,0.0172 -0.09607,-0.0172 -0.136885,0 -0.05771,0.0244 -0.07916,0.0913 -0.136879,0.11572 -0.04082,0.0172 -0.09359,-0.0122 -0.13688,0 -0.09679,0.0273 -0.176974,0.0884 -0.273764,0.11572 -0.0433,0.0122 -0.09892,-0.0214 -0.13688,0 -0.153047,0.0863 -0.398544,0.3369 -0.547529,0.46285 -0.319389,0.27 -0.638779,0.54 -0.958168,0.81 -0.115891,0.098 -0.449409,0.42139 -0.547524,0.46286 -0.348681,0.14738 -0.730039,0.23143 -1.095053,0.34714"
       id="path897"
       inkscape:connector-curvature="0" />
    <path
       style="fill:none;stroke:#000000;stroke-width:0.12585367px;stroke-linecap:butt;stroke-linejoin:miter;stroke-opacity:1"
       d="m -9.1644864,286.22648 c -0.6844087,-0.0386 -1.3719936,-0.18347 -2.0532206,-0.11571 -0.163384,0.0162 -0.170994,0.23854 -0.273765,0.34714 -0.08062,0.0852 -0.196328,0.14415 -0.273759,0.23143 -0.06122,0.069 -0.07315,0.16408 -0.136885,0.23143 -0.120925,0.12778 -0.289714,0.21935 -0.410644,0.34714 -0.06373,0.0674 -0.07314,0.16408 -0.13688,0.23143 -0.12093,0.12778 -0.289714,0.21935 -0.410644,0.34714 -0.127469,0.1347 -0.160574,0.31933 -0.273764,0.46286 -0.0358,0.0454 -0.09126,0.0771 -0.13688,0.11572 -0.13688,0.11571 -0.273764,0.23142 -0.410644,0.34714 -0.18251,0.15428 -0.365019,0.30857 -0.547524,0.46286 -0.09126,0.0771 -0.202179,0.14065 -0.273764,0.23143 -0.113186,0.14352 -0.160575,0.31932 -0.273765,0.46285 -0.0358,0.0454 -0.101084,0.0703 -0.13688,0.11571 -0.05659,0.0718 -0.08029,0.15967 -0.136879,0.23143 -0.0358,0.0454 -0.108027,0.0669 -0.136885,0.11572 -0.02038,0.0345 0.01443,0.0791 0,0.11572 -0.03228,0.0818 -0.104618,0.1496 -0.13688,0.23142 -0.01443,0.0366 0.0253,0.0836 0,0.11572 -0.07158,0.0908 -0.196328,0.14415 -0.273764,0.23142 -0.301567,0.0583 -0.07235,0.23805 -0.13688,0.34715 -0.02887,0.0488 -0.108022,0.0669 -0.13688,0.11571 -0.02038,0.0345 0.01107,0.0783 0,0.11572 -0.03497,0.11833 -0.09125,0.23143 -0.136884,0.34714 -0.04563,0.11571 -0.07235,0.23805 -0.13688,0.34714 -0.02887,0.0488 -0.116476,0.064 -0.13688,0.11572 -0.02887,0.0732 0.0179,0.15578 0,0.23143 -0.0283,0.1196 -0.101886,0.22881 -0.136885,0.34714 -0.01107,0.0374 0.01443,0.0791 0,0.11571 -0.03228,0.0818 -0.112135,0.14776 -0.136879,0.23143 -0.03321,0.11226 0.0433,0.23737 0,0.34715 -0.03228,0.0818 -0.04134,0.26171 -0.13688,0.23143 -0.367513,-0.11651 -0.638784,-0.38572 -0.958173,-0.57858"
       id="path899"
       inkscape:connector-curvature="0" />
    <path
       style="fill:none;stroke:#000000;stroke-width:0.12585367px;stroke-linecap:butt;stroke-linejoin:miter;stroke-opacity:1"
       d="m -9.1644864,286.22648 c -0.547529,-0.38572 -1.0355836,-0.84137 -1.6425766,-1.15714 -0.161593,-0.0841 -0.126657,0.42828 -0.13688,0.46285 -0.06999,0.23667 -0.203772,0.45763 -0.273764,0.69429 -0.01107,0.0374 0,0.0771 0,0.11572 0,0.21746 0.01443,0.14307 -0.13688,0.46285 -0.146011,0.30857 -0.18297,0.1948 -0.273764,0.57858 -0.0179,0.0756 0.02214,0.15658 0,0.23142 -0.02473,0.0837 -0.116874,0.14686 -0.13688,0.23143 -0.02685,0.11347 0.02685,0.23368 0,0.34715 -0.02002,0.0846 -0.09899,0.15134 -0.136885,0.23143 -0.05358,0.11324 -0.07235,0.23804 -0.13688,0.34714 -0.05772,0.0976 -0.232951,0.12793 -0.273764,0.23142 -0.02887,0.0732 0,0.15429 0,0.23144 0,0.0386 0.02038,0.0812 0,0.11571 -0.208713,0.35287 -0.108514,-0.21164 -0.273759,0.34714 -0.02214,0.0748 0.04082,0.16243 0,0.23143 -0.05772,0.0976 -0.193147,0.14624 -0.273765,0.23143 -0.102771,0.10859 -0.200192,0.22276 -0.273764,0.34715 -0.02038,0.0345 0.02043,0.0812 0,0.11571 -0.08213,0.13886 -0.328516,0.20828 -0.410644,0.34714 -0.02038,0.0345 0.02038,0.0812 0,0.11571 -0.08213,0.13886 -0.328516,0.20829 -0.410645,0.34715 -0.02038,0.0345 0.0253,0.0836 0,0.11571 -0.07159,0.0908 -0.182504,0.15429 -0.273759,0.23143 -0.136885,0.11572 -0.273764,0.23143 -0.410644,0.34714 -0.09126,0.0772 -0.18251,0.15429 -0.273765,0.23143 -0.04563,0.0386 -0.116475,0.064 -0.136879,0.11572 -0.05771,0.14637 0.04428,0.31318 0,0.46286 -0.02473,0.0837 -0.09126,0.15428 -0.136885,0.23142 -0.04563,0.0772 -0.08439,0.15747 -0.13688,0.23143 -0.08464,0.11926 -0.200192,0.22276 -0.273764,0.34715 -0.06452,0.10909 -0.07235,0.23804 -0.13688,0.34714 -0.02887,0.0488 -0.09126,0.0771 -0.13688,0.11571 -0.182509,0.15429 -0.404353,0.28131 -0.547529,0.46286 -0.62914,0.79778 0.176167,0.0825 -0.273759,0.46286 -0.04563,0.0386 -0.109595,0.16514 -0.136885,0.11571 -0.329715,-0.59727 -0.547524,-1.23428 -0.821288,-1.85143"
       id="path901"
       inkscape:connector-curvature="0" />
    <path
       style="fill:none;stroke:#000000;stroke-width:0.12585367px;stroke-linecap:butt;stroke-linejoin:miter;stroke-opacity:1"
       d="m -9.1644864,286.22648 c -0.6387787,0.11571 -1.3097826,0.14204 -1.9163416,0.34714 -0.133961,0.0453 -0.07235,0.23805 -0.136879,0.34715 -0.02887,0.0488 -0.103682,0.0689 -0.13688,0.11571 -0.09126,0.15429 -0.18251,0.30857 -0.273764,0.46286 -0.04563,0.0386 -0.10109,0.0703 -0.13688,0.11571 -0.05659,0.0718 -0.07315,0.16408 -0.136885,0.23143 -0.13688,0.11572 -0.273759,0.23143 -0.410644,0.34715 0,0.0386 0.02737,0.0849 0,0.11571 -0.116144,0.13091 -0.273759,0.23143 -0.410644,0.34714 -0.04563,0.0386 -0.101085,0.0703 -0.13688,0.11572 -0.05659,0.0718 -0.08029,0.15966 -0.136879,0.23142 -0.0358,0.0454 -0.108028,0.0669 -0.136885,0.11572 -0.02038,0.0345 0.02043,0.0812 0,0.11572 -0.08213,0.13885 -0.328516,0.20828 -0.410644,0.34714 -0.04082,0.069 0.04082,0.16243 0,0.23143 -0.02887,0.0488 -0.108023,0.0669 -0.13688,0.11571 -0.02038,0.0345 0.01107,0.0783 0,0.11571 -0.03497,0.11834 -0.108586,0.22754 -0.13688,0.34715 -0.0179,0.0756 0.02887,0.15824 0,0.23143 -0.03088,0.0784 -0.358366,0.25875 -0.410644,0.34714 -0.151314,0.25582 -0.136885,0.26562 -0.136885,0.46286 0,0.0771 0.02887,0.15824 0,0.23143 -0.03228,0.0818 -0.104618,0.14961 -0.136879,0.23143 -0.0254,0.0644 0.03518,0.30251 0,0.34714 -0.07159,0.0908 -0.21605,0.13385 -0.273765,0.23143 -0.04082,0.069 0.02887,0.15824 0,0.23143 -0.02038,0.0517 -0.108022,0.0669 -0.13688,0.11571 -0.06452,0.1091 -0.08329,0.23389 -0.136879,0.34714 -0.03787,0.0801 -0.09126,0.15429 -0.136885,0.23143 -0.04563,0.0771 -0.08029,0.15967 -0.13688,0.23143 -0.0358,0.0454 -0.108022,0.0669 -0.136879,0.11572 -0.02038,0.0345 0.02038,0.0812 0,0.11571 -0.02887,0.0488 -0.108028,0.0669 -0.136885,0.11572 -0.02038,0.0345 0.01107,0.0783 0,0.11571 -0.03497,0.11833 -0.07235,0.23805 -0.13688,0.34714 -0.08213,0.13886 -0.328515,0.20829 -0.410644,0.34715 -0.02038,0.0345 0.02038,0.0812 0,0.11571 -0.03171,0.0536 -0.46702,0.3948 -0.547524,0.46286 -0.198651,0.16793 -0.475695,0.33568 -0.547529,0.57857 -0.02214,0.0748 0,0.15429 0,0.23143 0,0.2553 -0.03228,0.002 0.273765,0.34714 0.06122,0.069 0.08029,0.15967 0.136879,0.23143 0.0358,0.0454 0.10109,0.0703 0.136885,0.11572 0.301572,0.0583 0.07236,0.23804 0.13688,0.34714 0.02887,0.0488 0.09126,0.0771 0.136879,0.11571 0.04563,0.0386 0.07236,0.11572 0.136885,0.11572 0.06452,0 0.09126,-0.15429 0.13688,-0.11572 0.04563,0.0386 -0.09126,0.0772 -0.13688,0.11572"
       id="path903"
       inkscape:connector-curvature="0" />
    <path
       style="fill:none;stroke:#000000;stroke-width:0.12585367px;stroke-linecap:butt;stroke-linejoin:miter;stroke-opacity:1"
       d="m -9.1644864,286.22648 c -0.4562742,-0.19286 -0.8951756,-0.41841 -1.3688126,-0.57857 -0.04237,-0.0144 0.01692,0.0799 0,0.11571 -0.07579,0.16016 -0.182509,0.30857 -0.273764,0.46286 -0.09126,0.15429 -0.197978,0.3027 -0.273765,0.46286 -0.01692,0.0358 0,0.0771 0,0.11571 -0.04563,0.11572 -0.06264,0.24255 -0.136879,0.34715 -0.563681,0.79419 -0.02287,-0.40483 -0.410644,0.57857 -0.04563,0.11571 -0.09126,0.23143 -0.13688,0.34714 -0.04563,0.11572 -0.06265,0.24255 -0.136885,0.34715 -0.0664,0.0935 -0.196328,0.14414 -0.273759,0.23142 -0.06122,0.069 -0.08029,0.15967 -0.136885,0.23143 -0.07158,0.0908 -0.202174,0.14066 -0.273759,0.23143 -0.05659,0.0718 -0.08029,0.15966 -0.136885,0.23143 -0.107376,0.13616 -0.303264,0.21098 -0.410644,0.34714 -0.0253,0.0321 0.01107,0.0783 0,0.11572 -0.03497,0.11833 -0.06265,0.24255 -0.13688,0.34714 -0.0664,0.0935 -0.202174,0.14065 -0.273764,0.23143 -0.859516,0.005 -0.147346,0.40046 -0.27376,0.57857 -0.117375,0.16537 -0.26813,0.31226 -0.410644,0.46286 -0.0403,0.0426 -0.103681,0.0689 -0.136885,0.11571 -0.999566,1.40833 0.476958,-0.41721 -0.684403,0.81 -0.221606,0.23417 -0.07606,0.30002 -0.273765,0.57858 -0.06717,0.0946 -0.490667,0.36673 -0.547524,0.46285 -0.02038,0.0345 0.02038,0.0812 0,0.11572 -0.02887,0.0488 -0.108027,0.0669 -0.136884,0.11571 -0.02038,0.0345 0.0253,0.0836 0,0.11572 -0.07159,0.0908 -0.202174,0.14065 -0.27376,0.23143 -0.0047,0.006 0.03901,0.32065 -0.136885,0.23142 -0.446092,-0.22626 -0.821288,-0.54 -1.231932,-0.81"
       id="path905"
       inkscape:connector-curvature="0" />
    <path
       style="fill:none;stroke:#000000;stroke-width:0.74441957;stroke-linecap:butt;stroke-linejoin:miter;stroke-miterlimit:4;stroke-dasharray:none;stroke-opacity:1"
       d="m -9.1644864,286.22648 c -0.3193894,-0.0771 -0.6285663,-0.1966 -0.9581676,-0.23143 -0.06403,-0.007 -0.108028,0.0669 -0.136885,0.11572 -0.109885,0.18578 -0.196059,0.38151 -0.27376,0.57857 -0.05949,0.15087 -0.09999,0.30691 -0.136884,0.46286 -0.009,0.0378 0.01697,0.0799 0,0.11571 -0.261162,0.55194 -0.26377,0.31336 -0.410645,0.81 -0.01107,0.0374 0.01443,0.0791 0,0.11572 -0.11812,0.29956 -0.345748,0.39578 -0.547523,0.69428 -0.711301,1.05229 0.0402,0.0138 -0.13688,0.46286 -0.03228,0.0818 -0.09899,0.15135 -0.136885,0.23143 -0.05358,0.11325 -0.08329,0.23389 -0.13688,0.34714 -0.110489,0.23352 -0.09968,0.19998 -0.273764,0.34714 -0.04563,0.0386 -0.101084,0.0703 -0.13688,0.11572 -0.168469,0.21362 -0.242175,0.48066 -0.410644,0.69428 -0.07159,0.0908 -0.202174,0.14066 -0.273764,0.23143 -0.05659,0.0718 -0.08029,0.15967 -0.13688,0.23143 -0.107375,0.13616 -0.294495,0.21623 -0.410644,0.34715 -0.12243,0.13799 -0.160574,0.31933 -0.273765,0.46285 -0.0358,0.0454 -0.09125,0.0772 -0.136879,0.11572 -0.31939,0.27 -0.638779,0.54 -0.958168,0.81 -0.07206,0.0609 -0.337538,0.31624 -0.410644,0.34714 -0.04082,0.0172 -0.09607,-0.0172 -0.136885,0 -0.05771,0.0244 -0.08319,0.0855 -0.13688,0.11572 -0.08489,0.0478 -0.188873,0.0679 -0.273764,0.11571 -0.05692,0.0321 -0.523043,0.42147 -0.547524,0.46286 -0.05475,0.0926 0.05475,0.25457 0,0.34714 -0.02038,0.0345 -0.116476,-0.0345 -0.13688,0 -0.01609,0.0272 0,0.38685 0,0.46286 0,0.57857 0,1.15714 0,1.73572"
       id="path907"
       inkscape:connector-curvature="0" />
    <path
       style="fill:none;stroke:#000000;stroke-width:3.55085778;stroke-linecap:butt;stroke-linejoin:miter;stroke-miterlimit:4;stroke-dasharray:none;stroke-opacity:1"
       d="m -7.7956743,284.83791 c -0.04563,0.0386 -0.09125,0.15428 -0.1368797,0.11571 -0.04563,-0.0386 0.2001512,-0.10502 0.1368797,-0.11571 -0.2684462,-0.0454 -0.5475238,0 -0.8212883,0 -0.1353432,0 -0.4285444,-0.0251 -0.5475238,0 -0.1399786,0.0296 -0.281592,0.0612 -0.4106442,0.11571 -0.070706,0.0299 -0.6379764,0.53932 -0.6844084,0.57857 -0.04563,0.0386 -0.07916,0.0913 -0.13688,0.11572 -0.05427,0.0229 -0.382661,-0.0237 -0.410644,0 -0.03228,0.0273 0.02038,0.0812 0,0.11571 -0.284836,0.48158 0.0095,-0.1237 -0.273765,0.11572 -0.03228,0.0273 0.03228,0.0884 0,0.11571 -0.03228,0.0273 -0.09607,-0.0172 -0.136879,0 -0.05771,0.0244 -0.08526,0.083 -0.13688,0.11572 -0.131608,0.0834 -0.279036,0.14798 -0.410644,0.23143 -0.103242,0.0654 -0.18251,0.15428 -0.273765,0.23142 -0.04563,0.0386 -0.101089,0.0703 -0.136879,0.11572 -0.05659,0.0718 -0.08029,0.15966 -0.136885,0.23143 -0.07158,0.0908 -0.216044,0.13385 -0.273759,0.23143 -0.02038,0.0345 0.02038,0.0812 0,0.11571 -0.05772,0.0976 -0.21605,0.13385 -0.273765,0.23143 -0.02038,0.0345 0.03228,0.0884 0,0.11571 -0.116325,0.0983 -0.294319,0.13309 -0.410644,0.23143 -5.17e-4,4.4e-4 10e-4,0.34327 0,0.34715 -0.02473,0.0837 -0.104618,0.1496 -0.13688,0.23143 -0.02695,0.0683 0,0.51391 0,0.57856 0,0.0386 0.01443,0.0791 0,0.11572 -0.330496,0.83817 0.03947,-0.18244 -0.273764,0.34715 -0.02038,0.0345 0,0.0771 0,0.11571 -0.04563,0.0771 -0.08029,0.15966 -0.13688,0.23143 -0.08592,0.10894 -0.671728,0.56785 -0.684408,0.57857 -0.04563,0.0386 -0.09126,0.0771 -0.13688,0.11572 -0.04563,0.0386 -0.07917,0.0913 -0.136885,0.11571 -0.04082,0.0172 -0.09126,0 -0.13688,0 -0.203736,0 -0.174713,-0.0173 -0.410644,0.11571 -0.107375,0.0605 -0.166384,0.17092 -0.273764,0.23143 -0.08489,0.0478 -0.192143,0.064 -0.27376,0.11571 -0.103241,0.0655 -0.182509,0.15429 -0.273764,0.23143 -0.13688,0.11572 -0.273765,0.23143 -0.410644,0.34715 -0.09883,0.0836 -0.521119,0.40705 -0.547524,0.46285 -0.03109,0.0658 0,0.68706 0,0.81001 0,0.0386 0.02038,0.0812 0,0.11571 -0.02887,0.0488 -0.108027,0.0669 -0.136885,0.11571 -0.02038,0.0345 0,0.0772 0,0.11572 0,0.0771 0.02214,0.15659 0,0.23143 -0.02473,0.0837 -0.104618,0.1496 -0.13688,0.23143 -0.01443,0.0366 0,0.0771 0,0.11571 0,0.11572 0.03321,0.23489 0,0.34714 -0.01562,0.0529 -0.108022,0.0669 -0.136879,0.11572 -0.02038,0.0345 0.0253,0.0836 0,0.11571 -0.07158,0.0908 -0.202179,0.14066 -0.273765,0.23143 -0.0253,0.0321 0.02038,0.0812 0,0.11572 -0.02887,0.0488 -0.09126,0.0771 -0.136879,0.11571 -0.04563,0.0386 -0.07917,0.0913 -0.136885,0.11572 -0.04082,0.0172 -0.09126,0 -0.13688,0 -0.09126,0 -0.189033,-0.0287 -0.273764,0 -0.13688,0.0771 -0.27376,0.15428 -0.410644,0.23142 -0.04563,0 -0.09359,-0.0122 -0.13688,0 -0.99149,0.27939 0.215811,-0.0334 -0.410644,0.23143 -0.04082,0.0172 -0.142214,0.0383 -0.13688,0 0.09203,-0.66129 0.273759,-1.31143 0.410644,-1.96714"
       id="path909"
       inkscape:connector-curvature="0" />
    <path
       style="fill:none;stroke:#000000;stroke-width:1.02982008;stroke-linecap:butt;stroke-linejoin:miter;stroke-miterlimit:4;stroke-dasharray:none;stroke-opacity:1"
       d="m -5.1949246,285.30077 c 0.021625,-1.04232 -0.6897269,0.0356 -0.9581731,-0.11572 -0.1073754,-0.0605 -0.166384,-0.17092 -0.2737593,-0.23143 -0.037973,-0.0214 -0.093598,0.0122 -0.1368848,0 -0.1935758,-0.0546 -0.353943,-0.17688 -0.5475239,-0.23143 -0.043302,-0.0122 -0.093593,0.0122 -0.1368796,0 -0.096791,-0.0273 -0.1747857,-0.0948 -0.2737645,-0.11571 -0.088528,-0.0187 -0.1921427,0.0345 -0.2737645,0 -0.1154253,-0.0488 -0.1825045,-0.15429 -0.2737593,-0.23143 -0.04563,-0.0386 -0.075667,-0.0985 -0.1368849,-0.11571 -0.6231185,0 -0.00781,0.0545 -0.4106441,-0.11572 -0.065957,-0.0279 -0.8832458,0.0158 -0.958168,0 -0.125198,-0.0265 -0.158334,-0.18264 -0.2737645,-0.23143 -0.3610099,-0.15259 -0.7096599,-0.11571 -1.0950479,-0.11571 -0.142348,0 -0.713618,-0.0227 -0.821288,0 -0.09898,0.0209 -0.188873,0.0679 -0.273765,0.11571 -0.05369,0.0303 -0.09125,0.0771 -0.136879,0.11572 -0.09126,0.0771 -0.202179,0.14065 -0.273765,0.23143 -0.0253,0.0321 0.02038,0.0812 0,0.11571 -0.321365,0.54335 -0.205764,0.14558 -0.410644,0.57857 -0.151308,0.31978 -0.136879,0.24539 -0.136879,0.46286 0,0.0771 0.02214,0.15659 0,0.23143 -0.02473,0.0837 -0.104618,0.1496 -0.136885,0.23143 -0.02654,0.0674 0,0.61466 0,0.69428 0,0.0386 0.02043,0.0812 0,0.11572 -0.02887,0.0488 -0.108022,0.0669 -0.13688,0.11571 -0.04077,0.0689 0.03844,0.48115 0,0.57858 -0.115818,0.29373 -0.434194,0.48276 -0.684409,0.69428 -0.04563,0.0386 -0.09125,0.0771 -0.136879,0.11572 -0.04563,0.0386 -0.108022,0.0669 -0.13688,0.11571 -0.06453,0.10909 -0.0833,0.23389 -0.136885,0.34714 -0.07578,0.16016 -0.209236,0.29922 -0.273759,0.46286 -0.01443,0.0366 0.02038,0.0812 0,0.11572 -0.02887,0.0488 -0.09126,0.0771 -0.136885,0.11571 -0.214523,0.18135 -0.38666,0.37895 -0.684403,0.46286 -0.0433,0.0122 -0.09607,-0.0173 -0.136885,0 -0.05771,0.0244 -0.08319,0.0855 -0.13688,0.11571 -0.08489,0.0478 -0.188873,0.0679 -0.273764,0.11571 -0.107376,0.0605 -0.166384,0.17092 -0.27376,0.23143 -0.08489,0.0478 -0.188873,0.0679 -0.273764,0.11572 -0.05369,0.0303 -0.07916,0.0913 -0.13688,0.11572 -0.04082,0.0172 -0.09607,-0.0173 -0.136885,0 -0.156921,0.0663 -0.190399,0.24143 -0.273759,0.34714 -0.0358,0.0454 -0.108027,0.0669 -0.136885,0.11571 -0.222599,0.37635 -0.03456,0.27525 -0.273759,0.57857 -0.0358,0.0454 -0.116476,0.064 -0.136885,0.11572 -0.02887,0.0732 0.02214,0.15659 0,0.23143 -0.02473,0.0837 -0.09899,0.15135 -0.13688,0.23142 -0.05359,0.11325 -0.08329,0.2339 -0.136879,0.34715 -0.03787,0.0801 -0.09126,0.15428 -0.136885,0.23143 -0.09126,0.15428 -0.168779,0.31494 -0.273759,0.46285 -0.03321,0.0468 -0.108028,0.0669 -0.136885,0.11572 -0.731891,1.23743 0.776424,-0.86882 -0.547524,0.81 -0.05659,0.0718 -0.116874,0.316 -0.13688,0.23143 -0.06264,-0.26476 0,-0.54 0,-0.81"
       id="path911"
       inkscape:connector-curvature="0" />
    <path
       style="fill:none;stroke:#000000;stroke-width:0.74441957;stroke-linecap:butt;stroke-linejoin:miter;stroke-miterlimit:4;stroke-dasharray:none;stroke-opacity:1"
       d="m -8.2063185,284.25934 c 0.5748501,-0.22759 0.8543003,-0.23143 1.3688173,-0.23143 0.091255,0 0.1871917,-0.0244 0.2737594,0 0.1218352,0.0343 0.2888089,0.31281 0.4106441,0.34714 0.6231237,0 0.00781,-0.0546 0.4106442,0.11571 0.041646,0.0176 0.3490022,0 0.4106441,0 0.3650193,0 0.7300335,0 1.0950528,0 0.091255,0 0.1825097,0 0.2737645,0 0.04563,0 0.1368797,0.0386 0.1368797,0 0,-0.0546 -0.091255,-0.0771 -0.1368797,-0.11571 -0.04563,-0.0386 -0.075667,-0.0985 -0.1368848,-0.11571 -0.086568,-0.0244 -0.1825045,0 -0.2737593,0 -0.04563,0 -0.096071,0.0172 -0.1368849,0 -0.05771,-0.0244 -0.079164,-0.0913 -0.1368796,-0.11572 -0.086035,-0.0363 -0.4614942,0.0364 -0.5475239,0 -0.4028166,-0.17026 0.2124744,-0.11571 -0.4106441,-0.11571 -0.1416082,0 -0.1891938,0.0273 -0.2737645,-0.11572 -0.020384,-0.0345 0.032282,-0.0884 0,-0.11571 -0.014124,-0.0119 -0.6502844,0.01 -0.6844086,0 -0.061212,-0.0172 -0.075662,-0.0985 -0.1368797,-0.11572 -0.073587,-0.0207 -0.4316329,0 -0.5475238,0 -0.04563,0 -0.098917,-0.0214 -0.1368849,0 -0.1073753,0.0605 -0.2329509,0.12793 -0.2737593,0.23143 -0.020383,0.0517 0.079165,0.0913 0.1368797,0.11572 0.040819,0.0172 0.1792452,-0.0144 0.1368796,0 -0.2679288,0.0906 -0.5475238,0.15428 -0.8212883,0.23143"
       id="path913"
       inkscape:connector-curvature="0" />
    <path
       style="opacity:1;fill:#e895ff;fill-opacity:1;fill-rule:nonzero;stroke:#000000;stroke-width:0.069015;stroke-linecap:round;stroke-miterlimit:4;stroke-dasharray:none;stroke-opacity:1"
       id="path880"
       sodipodi:type="arc"
       sodipodi:cx="-9.1644859"
       sodipodi:cy="287.00735"
       sodipodi:rx="4.7888422"
       sodipodi:ry="4.1880498"
       sodipodi:start="2.7715829"
       sodipodi:end="0"
       d="m -13.629238,288.52186 a 4.7888422,4.1880498 0 0 1 1.130135,-4.52036 4.7888422,4.1880498 0 0 1 5.2006365,-0.85117 4.7888422,4.1880498 0 0 1 2.9228228,3.85702 h -4.7888422 z" />
    <ellipse
       style="opacity:1;fill:#e895ff;fill-opacity:1;fill-rule:nonzero;stroke:#000000;stroke-width:0.74441957;stroke-linecap:round;stroke-miterlimit:4;stroke-dasharray:none;stroke-opacity:1"
       id="path921"
       cx="-5.7082329"
       cy="287.7597"
       rx="0.37642381"
       ry="0.31821463" />
    <path
       style="fill:none;stroke:#000000;stroke-width:0.12585367px;stroke-linecap:butt;stroke-linejoin:miter;stroke-opacity:1"
       d="m -8.0694336,288.71434 c 0.2190085,0.24686 0.2053195,0.135 0.2053195,0.28928 0,0.0193 -0.010192,0.0406 0,0.0579 0.014434,0.0244 0.058238,0.032 0.06844,0.0579 0.014434,0.0366 -0.020384,0.0812 0,0.11572 0.028868,0.0488 0.091255,0.0771 0.1368848,0.11571 0.022815,0.0193 0.058238,0.032 0.06844,0.0578 0.014434,0.0366 -0.014434,0.0791 0,0.11572 0.00259,0.007 0.1935808,0.16861 0.2053194,0.17357 0.037146,0.0157 0.2550366,-0.0158 0.2737645,0 0.016141,0.0137 -0.016141,0.0442 0,0.0579 0.016141,0.0136 0.04801,-0.009 0.06844,0 0.028868,0.0122 0.039577,0.0457 0.06844,0.0579 0.020435,0.009 0.04563,0 0.068445,0 0.022815,0.0193 0.039577,0.0457 0.06844,0.0579 0.04444,0.0188 0.2987886,-0.0184 0.3422044,0 0.028868,0.0122 0.039577,0.0457 0.06844,0.0579 0.054751,0.0231 0.1505686,-0.0231 0.2053195,0 0.028868,0.0122 0.039577,0.0457 0.06844,0.0579 0.054756,0.0231 0.1505738,-0.0231 0.2053247,0 0.028868,0.0122 0.039577,0.0457 0.06844,0.0579 0.020383,0.009 0.052309,-0.0136 0.06844,0 0.016141,0.0136 -0.016141,0.0442 0,0.0579 0.00259,0.002 0.2486318,0 0.2737645,0 0.06844,0 0.1403925,-0.0183 0.2053195,0 0.030627,0.009 0.039577,0.0457 0.068445,0.0579 0.020384,0.009 0.04563,0 0.06844,0 0.028765,0 0.3902814,-0.009 0.4106442,0 0.084571,0.0357 0.06844,0.0559 0.06844,0.11571"
       id="path923"
       inkscape:connector-curvature="0" />
  </g>
</svg>
